Patient4_TMGait_0pt5_02_left_03_EMG.mot
version=1
nRows=13
nColumns=33
inDegrees=no
endheader
time	1LAddLong	2LGlutMax	3LGlutMed	4LIliopsoas	5LSemiMemb	6LBicFemLong	7LRecFem	8LVastMed	9LVastLat	10LGasMed	11LTibAnt	12lTibPost	13LPeroneusLong	14LSol	15LExtDigLong	16LFlexDigLong	17RAddLong	18RGlutMax	19RGlutMed	20RIliopsoas	21RSemiMemb	22RBicFemLong	23RRecFem	24RVastMed	25RVastLat	26RGasMed	27RTibAnt	28RTibPost	29RPeroneusLong	30RSol	31RExtDigLong	32RFlexDigLong
3.632	0.00946	0.81024	0.021973	-0.002441	-0.1265	-0.18662	-0.13245	0.009613	-0.056458	-0.11749	0.017548	0.006409	0.013885	-0.22797	-0.009155	0.002136	-0.099792	0.13016	0.15411	-0.013885	-0.032349	0.087891	0.4097	-0.082703	-0.031586	-0.011444	0.14847	-0.018463	0.11032	0.00473	0.00061	-0.008698
3.633	0.018158	0.7489	0.001984	0.018768	-0.10529	0.1091	-0.18234	0.004425	-0.024261	-0.18845	0.022736	0.012512	0.014038	0.065002	0.000305	-0.006561	-0.1059	0.062561	0.20493	0.005341	-0.033722	0.028992	0.36652	-0.11826	-0.022736	-0.006866	0.11414	-0.019989	0.18021	-0.046539	0.000458	-0.01358
3.634	0.020599	0.68039	0.089417	0.00061	-0.041504	0.29221	-0.26077	0.009308	-0.04303	-0.37491	0.008087	0.031281	0.039215	0.17181	0.027313	-0.002899	-0.057983	0.032196	0.24597	-0.002747	-0.040283	0.02121	0.37521	-0.13916	-0.021667	-0.002441	0.068359	-0.015411	0.14084	-0.14404	0.000305	-0.01236
3.635	0.020294	0.77881	0.08667	0.018616	-0.029297	0.43243	-0.37521	0.01297	-0.032196	-0.55481	0.009918	0.040283	0.14801	0.2214	0.021057	0.005951	-0.023346	0.028076	0.20569	-0.024567	-0.061798	-0.00946	0.34912	-0.13626	-0.005035	-0.005341	0.070648	-0.014343	0.026245	-0.19409	-0.000916	-0.007019
3.636	0.033722	0.87494	0.073547	0.007172	0.009613	0.61615	-0.42313	0.009766	-0.004272	-0.41	0.011139	0.032959	0.20035	0.25085	0.016937	-0.000153	-0.021057	0.10407	0.15091	-0.032196	-0.062866	-0.058289	0.39322	-0.14114	-0.016785	-0.002289	-0.025177	-0.018463	0.045624	-0.15762	0.000305	-0.003662
3.637	0.04364	0.94025	0.001373	-0.004272	-0.026855	0.57404	-0.36697	0.005646	0.037689	-0.20554	0.019684	0.003662	0.13504	0.38818	0.01709	-0.00412	0.008545	0.10193	0.12772	-0.027161	-0.023193	-0.068512	0.34454	-0.1088	-0.036621	-0.007019	-0.10468	-0.016479	0.051422	-0.10468	-0.000305	-0.001221
3.638	0.039215	0.98984	0.1152	0.004883	-0.063934	0.15915	-0.3743	-0.000305	0.029907	-0.002289	0.014648	-0.001373	-0.036926	0.38498	-0.002899	0.006104	0.053711	0.083466	0.13107	0.036011	-0.014038	-0.084534	0.35492	-0.15595	-0.028839	-0.009003	-0.083923	-0.021362	0.040131	-0.064087	0.000305	-0.006714
3.639	0.030823	0.92453	0.19287	0.034332	0.046082	0.054321	-0.39887	0.005493	-0.058594	0.035706	0.029449	0.08316	0.075531	0.18478	-0.002747	0.002899	0.090942	0.020447	0.26993	0.057831	-0.020752	-0.039215	0.31616	-0.15152	-0.015411	-0.005798	-0.1593	-0.013885	0.033569	-0.061798	0.002289	-0.001678
3.64	0.030212	0.88394	0.056915	0.047607	0.063629	-0.022583	-0.44723	0.015259	-0.067444	-0.040436	0.011902	0.1091	0.10681	0.10437	-0.003052	0.025787	0.091095	0.008087	0.14008	0.11139	-0.010986	0.000458	0.34546	-0.15717	-0.027466	-0.008545	-0.14114	-0.013733	0.012665	-0.061493	-0.001526	-0.00946
3.641	0.020752	0.91812	-0.050659	0.039978	0.038452	-0.13046	-0.4689	0.015259	-0.01709	-0.059509	0.021515	-0.045929	0.15839	0.1767	0.031433	0.009308	0.088043	-0.045471	0.041809	0.071411	-0.011597	0.004425	0.33585	-0.088806	-0.017548	-0.007324	0.001831	-0.011749	0.002899	-0.056763	0.001221	-0.012817
3.642	-0.00412	0.91583	-0.094452	0.028992	0.017242	-0.20477	-0.47836	0.025482	-0.020142	-0.018616	0.032959	-0.12985	-0.025024	0.13947	0.018005	-0.007782	0.042114	-0.1207	-0.17136	0.20248	-0.003204	0.012512	0.36819	-0.0383	-0.005188	-0.007324	0.052032	-0.010376	-0.050201	-0.056152	0.00061	-0.009918
3.643	-0.026093	0.93933	-0.090942	0.015411	0.03418	-0.33371	-0.4541	0.033722	-0.011292	0.011292	0.03891	-0.037079	-0.42847	-0.047302	-0.024872	-0.005951	0.010071	-0.084686	-0.29419	0.2301	0.008087	-0.01358	0.32837	0.002289	-0.005341	-0.00351	0.047913	-0.012665	-0.16327	-0.061798	0.001373	-0.010071
3.644	-0.017853	0.88699	-0.12924	0.01297	-0.018158	0.032043	-0.44784	0.040436	-0.010681	-0.037537	0.007782	-0.030212	0.28366	-0.17105	-0.020599	0.003662	0.046539	-0.14557	-0.21072	0.17502	0.007629	-0.00824	0.29831	-0.027161	-0.009155	-0.001373	0.039825	-0.006866	-0.17593	-0.06073	0.001984	-0.015717
